<svg xmlns="http://www.w3.org/2000/svg" viewBox="0 0 96 96" width="384" height="384" role="img" aria-label="Divide or take offsets"><style>.ink{fill:var(--ink,#344638)}.leaf{fill:var(--leaf,#698958)}.light{fill:var(--light,#b9ca8e)}.earth{fill:var(--earth,#966641)}.amber{fill:var(--amber,#e4af57)}.cream{fill:var(--cream,#f1dcb7)}.water{fill:var(--water,#669bac)}.mist{fill:var(--mist,#c7dfe2)}</style><g stroke="var(--ink,#344638)" stroke-width="2.6" stroke-linecap="round" stroke-linejoin="round"><g transform="translate(27 37) scale(0.8)"><path d="M0 0C-14 1-20-8-19-17C-7-18 0-10 0 0Z" class="light"/><path d="M0-2C1-16 9-21 21-20C20-7 10-1 0-2Z" class="leaf"/><path d="M0 13V-6" fill="none"/></g><g transform="translate(69 37) scale(0.65)"><path d="M0 0C-14 1-20-8-19-17C-7-18 0-10 0 0Z" class="light"/><path d="M0-2C1-16 9-21 21-20C20-7 10-1 0-2Z" class="leaf"/><path d="M0 13V-6" fill="none"/></g><path d="M13 52L20 48L27 50L35 48L40 55L36 64L30 67L23 64L17 67L13 61Z" class="earth"/><path d="M56 53L63 48L70 50L76 48L82 54L80 63L73 66L68 63L61 67L57 61Z" class="earth"/><path d="M21 56L24 66L19 73M31 55L30 67L34 73M65 55L66 66L61 72M73 55L72 65L76 72" fill="none"/><path d="M47 17V24M47 32V39M47 47V54M47 62V69" fill="none"/><path d="M36 83H17M23 77L17 83L23 89M59 83H80M74 77L80 83L74 89" fill="none"/></g></svg>
