<svg xmlns="http://www.w3.org/2000/svg" viewBox="0 0 96 96" width="384" height="384" role="img" aria-label="Thin seedlings"><style>.ink{fill:var(--ink,#344638)}.leaf{fill:var(--leaf,#698958)}.light{fill:var(--light,#b9ca8e)}.earth{fill:var(--earth,#966641)}.amber{fill:var(--amber,#e4af57)}.cream{fill:var(--cream,#f1dcb7)}.water{fill:var(--water,#669bac)}.mist{fill:var(--mist,#c7dfe2)}</style><g stroke="var(--ink,#344638)" stroke-width="2.6" stroke-linecap="round" stroke-linejoin="round"><g transform="translate(21 59) scale(0.55)"><path d="M0 0C-14 1-20-8-19-17C-7-18 0-10 0 0Z" class="light"/><path d="M0-2C1-16 9-21 21-20C20-7 10-1 0-2Z" class="leaf"/><path d="M0 13V-6" fill="none"/></g><g transform="translate(74 59) scale(0.55)"><path d="M0 0C-14 1-20-8-19-17C-7-18 0-10 0 0Z" class="light"/><path d="M0-2C1-16 9-21 21-20C20-7 10-1 0-2Z" class="leaf"/><path d="M0 13V-6" fill="none"/></g><path d="M10 74H85V85H10Z" class="cream"/><g transform="translate(48 31) scale(0.58)"><path d="M0 0C-14 1-20-8-19-17C-7-18 0-10 0 0Z" class="light"/><path d="M0-2C1-16 9-21 21-20C20-7 10-1 0-2Z" class="leaf"/><path d="M0 13V-6" fill="none"/></g><path d="M48 40V56L42 63M48 53L54 60" fill="none"/><path d="M72 33V17M67 22L72 17L77 22" fill="none"/><path d="M43 73H53" fill="none"/></g></svg>
