<svg xmlns="http://www.w3.org/2000/svg" width="128" height="128" viewBox="0 0 128 128">
  <g stroke-linecap="round" stroke-linejoin="round" stroke-width="4">
    <path d="M33 54C3 20 3 86 32 84" fill="none" stroke="#345434" stroke-width="7"/>
    <path d="M37 42q0-27 28-27 18 0 20 18" fill="none" stroke="#345434" stroke-width="6"/>
    <path d="M28 44h48l8 57q-28 14-59 0Z" fill="#789d47" stroke="#345434"/>
    <path d="m76 65 23-26 10 9-29 44Z" fill="#d6e5aa" stroke="#345434"/>
    <path d="m100 34 17 17-7 7-17-17Z" fill="#dca65b" stroke="#735029"/>
    <path d="m111 68-2 7m10-12-1 7m-10 16-2 7m12-15-1 7" stroke="#5794a5" stroke-width="5"/>
    <path d="m38 57-2 33" stroke="#d6e5aa" stroke-width="5"/>
  </g>
</svg>