<svg xmlns="http://www.w3.org/2000/svg" viewBox="0 0 96 96" role="img" aria-label="English ploughed field with sunshine: temperate climate">
<g stroke="#344638" stroke-width="2.6" stroke-linecap="round" stroke-linejoin="round">
<circle cx="72" cy="20" r="10" fill="#e4af57"/>
<path d="M72 5V2M86 20H91M59 8L56 5M85 8L88 5M57 20H53" fill="none" stroke="#e4af57"/>
<path d="M8 46Q25 27 45 40Q65 31 88 45V54H8Z" fill="#b9ca8e"/>
<path d="M8 47Q10 39 17 43Q20 35 26 43Q31 37 36 44Q42 38 47 45Q54 40 59 45Q66 39 71 44Q78 37 82 44Q88 39 90 48" fill="#698958"/>
<path d="M9 49H87L91 85H5Z" fill="#966641"/>
<path d="M33 50L12 83M46 50L32 83M59 50L52 83M72 50L73 83" fill="none" stroke="#f1dcb7" stroke-width="4"/>
<path d="M9 49H87" fill="none"/>
</g></svg>
