<svg xmlns="http://www.w3.org/2000/svg" viewBox="0 0 96 96" width="384" height="384" role="img" aria-label="plant spacing"><g transform="translate(25 42) scale(0.75)"><path d="M0 0C-18 1-22-11-20-19C-6-19 1-10 0 0ZM2-2C1-17 12-23 23-21C22-6 11-1 2-2Z" fill="#344638"/><path d="M1-4V17" fill="none" stroke="#344638" stroke-width="5" stroke-linecap="round" stroke-linejoin="round"/></g><g transform="translate(71 42) scale(0.75)"><path d="M0 0C-18 1-22-11-20-19C-6-19 1-10 0 0ZM2-2C1-17 12-23 23-21C22-6 11-1 2-2Z" fill="#344638"/><path d="M1-4V17" fill="none" stroke="#344638" stroke-width="5" stroke-linecap="round" stroke-linejoin="round"/></g><path d="M11 59H85V68H11Z" fill="#cfdbb3"/><path d="M17 82H79M23 76L17 82L23 88M73 76L79 82L73 88" fill="none" stroke="#344638" stroke-width="4" stroke-linecap="round" stroke-linejoin="round"/></svg>
