<svg xmlns="http://www.w3.org/2000/svg" viewBox="0 0 96 96" width="384" height="384" role="img" aria-label="row spacing"><path d="M12 16H62V33H12ZM12 63H62V80H12Z" fill="#cfdbb3"/><g transform="translate(25 26) scale(0.42)"><path d="M0 0C-18 1-22-11-20-19C-6-19 1-10 0 0ZM2-2C1-17 12-23 23-21C22-6 11-1 2-2Z" fill="#344638"/><path d="M1-4V17" fill="none" stroke="#344638" stroke-width="5" stroke-linecap="round" stroke-linejoin="round"/></g><g transform="translate(49 26) scale(0.42)"><path d="M0 0C-18 1-22-11-20-19C-6-19 1-10 0 0ZM2-2C1-17 12-23 23-21C22-6 11-1 2-2Z" fill="#344638"/><path d="M1-4V17" fill="none" stroke="#344638" stroke-width="5" stroke-linecap="round" stroke-linejoin="round"/></g><g transform="translate(25 73) scale(0.42)"><path d="M0 0C-18 1-22-11-20-19C-6-19 1-10 0 0ZM2-2C1-17 12-23 23-21C22-6 11-1 2-2Z" fill="#344638"/><path d="M1-4V17" fill="none" stroke="#344638" stroke-width="5" stroke-linecap="round" stroke-linejoin="round"/></g><g transform="translate(49 73) scale(0.42)"><path d="M0 0C-18 1-22-11-20-19C-6-19 1-10 0 0ZM2-2C1-17 12-23 23-21C22-6 11-1 2-2Z" fill="#344638"/><path d="M1-4V17" fill="none" stroke="#344638" stroke-width="5" stroke-linecap="round" stroke-linejoin="round"/></g><path d="M77 22V74M71 28L77 22L83 28M71 68L77 74L83 68" fill="none" stroke="#344638" stroke-width="4.5" stroke-linecap="round" stroke-linejoin="round"/></svg>
