<svg xmlns="http://www.w3.org/2000/svg" viewBox="0 0 96 96" width="384" height="384" role="img" aria-label="Watering: botanical style"><path d="M28 35C7 19 5 61 24 64M26 30C13 21 11 54 24 57" fill="none" stroke="#344638" stroke-width="2" stroke-linecap="round" stroke-linejoin="round"/><path d="M24 35Q41 30 56 35L55 74Q40 84 24 74Z" fill="#bad1cd" stroke="#344638" stroke-width="2"/><path d="M55 47L76 29L81 35L55 63Z" fill="#719da6" stroke="#344638" stroke-width="2"/><path d="M71 25L77 20L88 32L83 38Z" fill="#bad1cd" stroke="#344638" stroke-width="2"/><path d="M27 34C26 17 46 13 52 31M31 33C31 22 43 19 48 32M25 42Q41 47 55 42M25 69Q40 75 55 69M29 49L29 64M33 51L33 67M49 50L49 66M74 26L82 33" fill="none" stroke="#344638" stroke-width="1.7" stroke-linecap="round" stroke-linejoin="round"/><g fill="#719da6"><path d="M79 44Q73 53 79 54Q85 53 79 44ZM88 53Q82 62 88 63Q94 62 88 53ZM81 68Q76 75 81 76Q86 75 81 68Z"/></g></svg>
