<svg xmlns="http://www.w3.org/2000/svg" width="128" height="128" viewBox="0 0 128 128">
  <g stroke-linecap="round" stroke-linejoin="round">
    <path d="M34 65V47c0-38 60-38 60 0v18" fill="none" stroke="#735029" stroke-width="6"/>
    <path d="M57 65C38 60 32 43 38 30c17 3 26 13 19 35Z" fill="#789d47" stroke="#345434" stroke-width="4"/>
    <path d="M60 63C56 43 66 28 82 27c3 18-5 32-22 36Z" fill="#4c7c3b" stroke="#345434" stroke-width="4"/>
    <path d="m60 63 12-24" fill="none" stroke="#d6e5aa" stroke-width="3"/>
    <path d="M36 60c-2-17 24-23 31-6 9-12 30-4 28 11Z" fill="#d49b39" stroke="#8b5b25" stroke-width="4"/>
    <path d="m20 63 12 40q32 17 64 0l12-40Z" fill="#dca65b" stroke="#735029" stroke-width="5"/>
    <path d="m39 73 6 29m19-28v33m25-34-6 29M29 85h70M33 97h62" fill="none" stroke="#a56b31" stroke-width="4"/>
    <path d="M19 62h90v11H19Z" fill="#f0cf91" stroke="#735029" stroke-width="5"/>
  </g>
</svg>