<svg xmlns="http://www.w3.org/2000/svg" viewBox="0 0 96 96" width="384" height="384" role="img" aria-labelledby="title"><title id="title">Harvesting</title><style>.ink{fill:var(--ink,#344638)}.leaf{fill:var(--leaf,#698958)}.light{fill:var(--light,#b9ca8e)}.earth{fill:var(--earth,#966641)}.amber{fill:var(--amber,#e4af57)}.cream{fill:var(--cream,#f1dcb7)}.water{fill:var(--water,#669bac)}.mist{fill:var(--mist,#c7dfe2)}</style><g stroke="var(--ink,#344638)" stroke-width="2.6" stroke-linecap="round" stroke-linejoin="round">
    <path d="M27 50C21 13 75 13 70 50" stroke-width="5" fill="none"/>
    <path class="amber" d="M47 40L68 46L47 70Z"/>
    <path class="leaf" d="M63 44C59 33 64 22 70 16C72 30 70 34 68 39C72 29 80 27 86 28C81 38 75 44 63 44Z"/>
    <path class="light" d="M38 53C18 47 17 30 20 23C35 25 39 39 38 53Z"/>
    <path class="leaf" d="M38 52C32 32 46 24 54 27C56 41 48 50 38 52Z"/>
    <path class="cream" d="M15 50H81L74 81Q48 89 22 81Z"/>
    <path class="earth" d="M14 49H82V57H14Z"/>
    <path d="M27 67H69M29 76H67M37 59V81M58 59V81" fill="none" stroke-width="2.2"/></g></svg>
