<svg xmlns="http://www.w3.org/2000/svg" viewBox="0 0 96 96" width="384" height="384" role="img" aria-label="Forked roots"><g fill="currentColor" style="color:var(--icon-color,#30352f)"><path d="M45 28C25 26 24 14 27 8C40 10 46 18 45 28ZM49 27C48 12 60 8 72 10C70 22 60 28 49 27Z"/><path d="M47 23V40" fill="none" stroke="currentColor" stroke-width="4" stroke-linecap="round" stroke-linejoin="round"/><defs><mask id="cut10" maskUnits="userSpaceOnUse" x="-96" y="-96" width="288" height="288"><rect x="-96" y="-96" width="288" height="288" fill="white"/><g fill="none" stroke="black" stroke-width="4" stroke-linecap="round" stroke-linejoin="round"><path d="M34 43H43M50 52H60"/></g></mask></defs><g mask="url(#cut10)"><path d="M33 36Q47 31 62 36C69 45 62 58 58 64L69 87C58 86 50 76 46 65C41 77 32 85 22 89L32 62C25 49 26 42 33 36Z"/></g></g></svg>
