<svg xmlns="http://www.w3.org/2000/svg" viewBox="0 0 96 96" width="384" height="384" role="img" aria-label="Poor germination"><g fill="currentColor" style="color:var(--icon-color,#30352f)"><path d="M11 51H85M27 50V31" fill="none" stroke="currentColor" stroke-width="4" stroke-linecap="round" stroke-linejoin="round"/><path d="M27 34C11 34 10 23 12 19C23 18 29 25 27 34ZM28 30C29 17 39 15 47 17C46 28 38 34 28 30Z"/><defs><mask id="cut3" maskUnits="userSpaceOnUse" x="0" y="0" width="96" height="96"><rect width="96" height="96" fill="white"/><g fill="none" stroke="black" stroke-width="4" stroke-linecap="round" stroke-linejoin="round"><path d="M28 61L24 68L28 74"/></g></mask></defs><g mask="url(#cut3)"><ellipse cx="26" cy="68" rx="7" ry="10"/></g><ellipse cx="51" cy="68" rx="7" ry="10"/><ellipse cx="76" cy="68" rx="7" ry="10"/><path d="M26 77L23 86" fill="none" stroke="currentColor" stroke-width="3.5" stroke-linecap="round" stroke-linejoin="round"/></g></svg>
