<svg xmlns="http://www.w3.org/2000/svg" viewBox="0 0 96 96" width="384" height="384" role="img" aria-label="Sun scorch / scald"><g fill="currentColor" style="color:var(--icon-color,#30352f)"><ellipse cx="20" cy="20" rx="9" ry="9"/><path d="M20 5V2M5 20H2M9 9L6 6M30 10L35 5M10 31L6 35" fill="none" stroke="currentColor" stroke-width="3.5" stroke-linecap="round" stroke-linejoin="round"/><defs><mask id="cut22" maskUnits="userSpaceOnUse" x="-96" y="-96" width="288" height="288"><rect x="-96" y="-96" width="288" height="288" fill="white"/><g fill="none" stroke="black" stroke-width="4" stroke-linecap="round" stroke-linejoin="round"><path fill="black" stroke="none" d="M45 40C33 49 34 66 45 73L49 66L46 58L52 51Z"/></g></mask></defs><g mask="url(#cut22)"><path d="M59 36C42 26 28 43 31 60C31 80 48 90 64 85C83 86 92 68 87 52C84 35 69 28 59 36Z"/></g><path d="M60 37L62 24M34 32L42 40" fill="none" stroke="currentColor" stroke-width="4" stroke-linecap="round" stroke-linejoin="round"/></g></svg>
